<?xml version="1.0" encoding="UTF-8" standalone="no"?>
<!DOCTYPE svg PUBLIC "-//W3C//DTD SVG 1.1//EN"
 "http://www.w3.org/Graphics/SVG/1.1/DTD/svg11.dtd">
<!-- Generated by graphviz version 2.44.0 ()
 -->
<!-- Pages: 1 -->
<svg width="1138pt" height="665pt"
 viewBox="0.00 0.00 1137.95 665.47" xmlns="http://www.w3.org/2000/svg" xmlns:xlink="http://www.w3.org/1999/xlink">
<g id="graph0" class="graph" transform="scale(1 1) rotate(0) translate(36 629.47)">
<polygon fill="#ffffff" stroke="transparent" points="-36,36 -36,-629.47 1101.95,-629.47 1101.95,36 -36,36"/>
<!-- heritrix -->
<g id="node1" class="node">
<title>heritrix</title>
<polygon fill="none" stroke="black" points="641.95,-457.13 570.95,-457.13 570.95,-453.13 566.95,-453.13 566.95,-449.13 570.95,-449.13 570.95,-429.13 566.95,-429.13 566.95,-425.13 570.95,-425.13 570.95,-421.13 641.95,-421.13 641.95,-457.13"/>
<polyline fill="none" stroke="black" points="570.95,-453.13 574.95,-453.13 574.95,-449.13 570.95,-449.13 "/>
<polyline fill="none" stroke="black" points="570.95,-429.13 574.95,-429.13 574.95,-425.13 570.95,-425.13 "/>
<text text-anchor="middle" x="606.45" y="-435.43" font-family="Times,serif" font-size="14.00">heritrix</text>
</g>
<!-- clamd -->
<g id="node2" class="node">
<title>clamd</title>
<polygon fill="none" stroke="black" points="491.95,-351.23 432.95,-351.23 432.95,-347.23 428.95,-347.23 428.95,-343.23 432.95,-343.23 432.95,-323.23 428.95,-323.23 428.95,-319.23 432.95,-319.23 432.95,-315.23 491.95,-315.23 491.95,-351.23"/>
<polyline fill="none" stroke="black" points="432.95,-347.23 436.95,-347.23 436.95,-343.23 432.95,-343.23 "/>
<polyline fill="none" stroke="black" points="432.95,-323.23 436.95,-323.23 436.95,-319.23 432.95,-319.23 "/>
<text text-anchor="middle" x="462.45" y="-329.53" font-family="Times,serif" font-size="14.00">clamd</text>
</g>
<!-- heritrix&#45;&gt;clamd -->
<g id="edge1" class="edge">
<title>heritrix&#45;&gt;clamd</title>
<path fill="none" stroke="black" stroke-dasharray="1,5" d="M579.08,-421.03C557.53,-407.26 526.96,-387.08 501.45,-367.68 497.48,-364.67 493.39,-361.38 489.42,-358.08"/>
<polygon fill="black" stroke="black" points="491.4,-355.17 481.51,-351.37 486.88,-360.51 491.4,-355.17"/>
</g>
<!-- kafka -->
<g id="node3" class="node">
<title>kafka</title>
<polygon fill="none" stroke="black" points="163.95,-125.45 108.95,-125.45 108.95,-121.45 104.95,-121.45 104.95,-117.45 108.95,-117.45 108.95,-97.45 104.95,-97.45 104.95,-93.45 108.95,-93.45 108.95,-89.45 163.95,-89.45 163.95,-125.45"/>
<polyline fill="none" stroke="black" points="108.95,-121.45 112.95,-121.45 112.95,-117.45 108.95,-117.45 "/>
<polyline fill="none" stroke="black" points="108.95,-97.45 112.95,-97.45 112.95,-93.45 108.95,-93.45 "/>
<text text-anchor="middle" x="136.45" y="-103.75" font-family="Times,serif" font-size="14.00">kafka</text>
</g>
<!-- heritrix&#45;&gt;kafka -->
<g id="edge2" class="edge">
<title>heritrix&#45;&gt;kafka</title>
<path fill="none" stroke="black" stroke-dasharray="1,5" d="M570.5,-424.14C551.44,-417.26 527.47,-409.44 505.45,-404.68 429.21,-388.22 210.8,-423.61 156.45,-367.68 95.38,-304.84 115.43,-188.24 128.68,-135.54"/>
<polygon fill="black" stroke="black" points="132.14,-136.16 131.3,-125.6 125.37,-134.38 132.14,-136.16"/>
</g>
<!-- webrender -->
<g id="node4" class="node">
<title>webrender</title>
<polygon fill="none" stroke="black" points="814.45,-351.23 720.45,-351.23 720.45,-347.23 716.45,-347.23 716.45,-343.23 720.45,-343.23 720.45,-323.23 716.45,-323.23 716.45,-319.23 720.45,-319.23 720.45,-315.23 814.45,-315.23 814.45,-351.23"/>
<polyline fill="none" stroke="black" points="720.45,-347.23 724.45,-347.23 724.45,-343.23 720.45,-343.23 "/>
<polyline fill="none" stroke="black" points="720.45,-323.23 724.45,-323.23 724.45,-319.23 720.45,-319.23 "/>
<text text-anchor="middle" x="767.45" y="-329.53" font-family="Times,serif" font-size="14.00">webrender</text>
</g>
<!-- heritrix&#45;&gt;webrender -->
<g id="edge3" class="edge">
<title>heritrix&#45;&gt;webrender</title>
<path fill="none" stroke="black" stroke-dasharray="1,5" d="M633.03,-420.97C660.26,-403.4 702.73,-376 732.63,-356.7"/>
<polygon fill="black" stroke="black" points="734.58,-359.61 741.09,-351.24 730.79,-353.72 734.58,-359.61"/>
</g>
<!-- cdxserver -->
<g id="node5" class="node">
<title>cdxserver</title>
<polygon fill="none" stroke="black" points="572.95,-125.45 485.95,-125.45 485.95,-121.45 481.95,-121.45 481.95,-117.45 485.95,-117.45 485.95,-97.45 481.95,-97.45 481.95,-93.45 485.95,-93.45 485.95,-89.45 572.95,-89.45 572.95,-125.45"/>
<polyline fill="none" stroke="black" points="485.95,-121.45 489.95,-121.45 489.95,-117.45 485.95,-117.45 "/>
<polyline fill="none" stroke="black" points="485.95,-97.45 489.95,-97.45 489.95,-93.45 485.95,-93.45 "/>
<text text-anchor="middle" x="529.45" y="-103.75" font-family="Times,serif" font-size="14.00">cdxserver</text>
</g>
<!-- heritrix&#45;&gt;cdxserver -->
<g id="edge4" class="edge">
<title>heritrix&#45;&gt;cdxserver</title>
<path fill="none" stroke="black" stroke-dasharray="1,5" d="M609.2,-421.12C615.69,-375.48 628.01,-247.84 579.45,-159.89 573.92,-149.88 565.91,-140.42 557.93,-132.42"/>
<polygon fill="black" stroke="black" points="560.32,-129.87 550.67,-125.5 555.49,-134.93 560.32,-129.87"/>
</g>
<!-- acid.matkelly.com -->
<g id="node6" class="node">
<title>acid.matkelly.com</title>
<polygon fill="none" stroke="black" points="792.95,-125.45 649.95,-125.45 649.95,-121.45 645.95,-121.45 645.95,-117.45 649.95,-117.45 649.95,-97.45 645.95,-97.45 645.95,-93.45 649.95,-93.45 649.95,-89.45 792.95,-89.45 792.95,-125.45"/>
<polyline fill="none" stroke="black" points="649.95,-121.45 653.95,-121.45 653.95,-117.45 649.95,-117.45 "/>
<polyline fill="none" stroke="black" points="649.95,-97.45 653.95,-97.45 653.95,-93.45 649.95,-93.45 "/>
<text text-anchor="middle" x="721.45" y="-103.75" font-family="Times,serif" font-size="14.00">acid.matkelly.com</text>
</g>
<!-- heritrix&#45;&gt;acid.matkelly.com -->
<g id="edge5" class="edge">
<title>heritrix&#45;&gt;acid.matkelly.com</title>
<path fill="none" stroke="black" stroke-dasharray="1,5" d="M642.22,-438.41C692.28,-436.63 781.77,-425.04 823.45,-367.68 845.34,-337.55 802.8,-193.58 802.45,-192.89 790.16,-169.3 769.25,-147.75 751.75,-132.32"/>
<polygon fill="black" stroke="black" points="753.87,-129.53 744,-125.68 749.32,-134.84 753.87,-129.53"/>
</g>
<!-- crawl&#45;test&#45;site.webarchive.org.uk -->
<g id="node7" class="node">
<title>crawl&#45;test&#45;site.webarchive.org.uk</title>
<polygon fill="none" stroke="black" points="1065.95,-125.45 810.95,-125.45 810.95,-121.45 806.95,-121.45 806.95,-117.45 810.95,-117.45 810.95,-97.45 806.95,-97.45 806.95,-93.45 810.95,-93.45 810.95,-89.45 1065.95,-89.45 1065.95,-125.45"/>
<polyline fill="none" stroke="black" points="810.95,-121.45 814.95,-121.45 814.95,-117.45 810.95,-117.45 "/>
<polyline fill="none" stroke="black" points="810.95,-97.45 814.95,-97.45 814.95,-93.45 810.95,-93.45 "/>
<text text-anchor="middle" x="938.45" y="-103.75" font-family="Times,serif" font-size="14.00">crawl&#45;test&#45;site.webarchive.org.uk</text>
</g>
<!-- heritrix&#45;&gt;crawl&#45;test&#45;site.webarchive.org.uk -->
<g id="edge6" class="edge">
<title>heritrix&#45;&gt;crawl&#45;test&#45;site.webarchive.org.uk</title>
<path fill="none" stroke="black" stroke-dasharray="1,5" d="M642.28,-434.93C686.22,-429.82 761.93,-417.08 819.45,-386.68 830.57,-380.8 831.52,-376.55 840.45,-367.68 885.72,-322.69 912.62,-320.59 937.45,-261.79 954.85,-220.58 949.84,-167.42 944.34,-135.74"/>
<polygon fill="black" stroke="black" points="947.77,-135.05 942.49,-125.87 940.89,-136.34 947.77,-135.05"/>
</g>
<!-- zookeeper -->
<g id="node12" class="node">
<title>zookeeper</title>
<polygon fill="none" stroke="black" points="180.95,-36 91.95,-36 91.95,-32 87.95,-32 87.95,-28 91.95,-28 91.95,-8 87.95,-8 87.95,-4 91.95,-4 91.95,0 180.95,0 180.95,-36"/>
<polyline fill="none" stroke="black" points="91.95,-32 95.95,-32 95.95,-28 91.95,-28 "/>
<polyline fill="none" stroke="black" points="91.95,-8 95.95,-8 95.95,-4 91.95,-4 "/>
<text text-anchor="middle" x="136.45" y="-14.3" font-family="Times,serif" font-size="14.00">zookeeper</text>
</g>
<!-- kafka&#45;&gt;zookeeper -->
<g id="edge11" class="edge">
<title>kafka&#45;&gt;zookeeper</title>
<path fill="none" stroke="black" stroke-dasharray="1,5" d="M136.45,-89.17C136.45,-76.95 136.45,-60.32 136.45,-46.32"/>
<polygon fill="black" stroke="black" points="139.95,-46.24 136.45,-36.24 132.95,-46.24 139.95,-46.24"/>
</g>
<!-- warcprox -->
<g id="node17" class="node">
<title>warcprox</title>
<polygon fill="none" stroke="black" points="717.95,-245.34 634.95,-245.34 634.95,-241.34 630.95,-241.34 630.95,-237.34 634.95,-237.34 634.95,-217.34 630.95,-217.34 630.95,-213.34 634.95,-213.34 634.95,-209.34 717.95,-209.34 717.95,-245.34"/>
<polyline fill="none" stroke="black" points="634.95,-241.34 638.95,-241.34 638.95,-237.34 634.95,-237.34 "/>
<polyline fill="none" stroke="black" points="634.95,-217.34 638.95,-217.34 638.95,-213.34 634.95,-213.34 "/>
<text text-anchor="middle" x="676.45" y="-223.64" font-family="Times,serif" font-size="14.00">warcprox</text>
</g>
<!-- webrender&#45;&gt;warcprox -->
<g id="edge17" class="edge">
<title>webrender&#45;&gt;warcprox</title>
<path fill="none" stroke="black" stroke-dasharray="1,5" d="M752.42,-315.08C737.67,-298.24 715,-272.36 698.27,-253.25"/>
<polygon fill="black" stroke="black" points="700.72,-250.74 691.5,-245.52 695.45,-255.35 700.72,-250.74"/>
</g>
<!-- 8443 -->
<g id="node8" class="node">
<title>8443</title>
<ellipse fill="none" stroke="black" cx="693.45" cy="-559.02" rx="34.39" ry="34.39"/>
<text text-anchor="middle" x="693.45" y="-555.32" font-family="Times,serif" font-size="14.00">8443</text>
</g>
<!-- 8443&#45;&gt;heritrix -->
<g id="edge7" class="edge">
<title>8443&#45;&gt;heritrix</title>
<path fill="none" stroke="black" d="M674.61,-529.92C666.44,-517.97 656.65,-503.96 647.45,-491.58 641.01,-482.91 633.74,-473.64 627.12,-465.38"/>
<polygon fill="black" stroke="black" points="629.79,-463.11 620.79,-457.52 624.34,-467.5 629.79,-463.11"/>
</g>
<!-- 9101 -->
<g id="node9" class="node">
<title>9101</title>
<ellipse fill="none" stroke="black" cx="519.45" cy="-559.02" rx="34.39" ry="34.39"/>
<text text-anchor="middle" x="519.45" y="-555.32" font-family="Times,serif" font-size="14.00">9101</text>
</g>
<!-- 9101&#45;&gt;heritrix -->
<g id="edge8" class="edge">
<title>9101&#45;&gt;heritrix</title>
<path fill="none" stroke="black" d="M539.63,-530.68C554.08,-511.1 573.4,-484.9 587.56,-465.73"/>
<polygon fill="black" stroke="black" points="590.53,-467.59 593.66,-457.46 584.9,-463.43 590.53,-467.59"/>
</g>
<!-- 9119 -->
<g id="node10" class="node">
<title>9119</title>
<ellipse fill="none" stroke="black" cx="606.45" cy="-559.02" rx="34.39" ry="34.39"/>
<text text-anchor="middle" x="606.45" y="-555.32" font-family="Times,serif" font-size="14.00">9119</text>
</g>
<!-- 9119&#45;&gt;heritrix -->
<g id="edge9" class="edge">
<title>9119&#45;&gt;heritrix</title>
<path fill="none" stroke="black" d="M606.45,-524.55C606.45,-506.57 606.45,-484.67 606.45,-467.69"/>
<polygon fill="black" stroke="black" points="609.95,-467.32 606.45,-457.32 602.95,-467.32 609.95,-467.32"/>
<text text-anchor="middle" x="624.95" y="-495.38" font-family="Times,serif" font-size="14.00">9118</text>
</g>
<!-- 3310 -->
<g id="node11" class="node">
<title>3310</title>
<ellipse fill="none" stroke="black" cx="462.45" cy="-439.13" rx="34.39" ry="34.39"/>
<text text-anchor="middle" x="462.45" y="-435.43" font-family="Times,serif" font-size="14.00">3310</text>
</g>
<!-- 3310&#45;&gt;clamd -->
<g id="edge10" class="edge">
<title>3310&#45;&gt;clamd</title>
<path fill="none" stroke="black" d="M462.45,-404.4C462.45,-390.6 462.45,-374.85 462.45,-361.76"/>
<polygon fill="black" stroke="black" points="465.95,-361.51 462.45,-351.51 458.95,-361.51 465.95,-361.51"/>
</g>
<!-- 9092 -->
<g id="node13" class="node">
<title>9092</title>
<ellipse fill="none" stroke="black" cx="34.45" cy="-227.34" rx="34.39" ry="34.39"/>
<text text-anchor="middle" x="34.45" y="-223.64" font-family="Times,serif" font-size="14.00">9092</text>
</g>
<!-- 9092&#45;&gt;kafka -->
<g id="edge12" class="edge">
<title>9092&#45;&gt;kafka</title>
<path fill="none" stroke="black" d="M53.2,-197.99C61.66,-185.87 72.06,-171.79 82.45,-159.89 90.68,-150.46 100.39,-140.82 109.3,-132.46"/>
<polygon fill="black" stroke="black" points="111.88,-134.85 116.86,-125.5 107.13,-129.7 111.88,-134.85"/>
</g>
<!-- 2181 -->
<g id="node14" class="node">
<title>2181</title>
<ellipse fill="none" stroke="black" cx="56.45" cy="-107.45" rx="34.39" ry="34.39"/>
<text text-anchor="middle" x="56.45" y="-103.75" font-family="Times,serif" font-size="14.00">2181</text>
</g>
<!-- 2181&#45;&gt;zookeeper -->
<g id="edge13" class="edge">
<title>2181&#45;&gt;zookeeper</title>
<path fill="none" stroke="black" d="M79.59,-81.15C90.31,-69.43 103.01,-55.55 113.69,-43.88"/>
<polygon fill="black" stroke="black" points="116.54,-45.95 120.71,-36.21 111.37,-41.22 116.54,-45.95"/>
</g>
<!-- kafka&#45;ui -->
<g id="node15" class="node">
<title>kafka&#45;ui</title>
<polygon fill="none" stroke="black" points="235.95,-245.34 162.95,-245.34 162.95,-241.34 158.95,-241.34 158.95,-237.34 162.95,-237.34 162.95,-217.34 158.95,-217.34 158.95,-213.34 162.95,-213.34 162.95,-209.34 235.95,-209.34 235.95,-245.34"/>
<polyline fill="none" stroke="black" points="162.95,-241.34 166.95,-241.34 166.95,-237.34 162.95,-237.34 "/>
<polyline fill="none" stroke="black" points="162.95,-217.34 166.95,-217.34 166.95,-213.34 162.95,-213.34 "/>
<text text-anchor="middle" x="199.45" y="-223.64" font-family="Times,serif" font-size="14.00">kafka&#45;ui</text>
</g>
<!-- kafka&#45;ui&#45;&gt;kafka -->
<g id="edge15" class="edge">
<title>kafka&#45;ui&#45;&gt;kafka</title>
<path fill="none" stroke="black" stroke-dasharray="1,5" d="M190.29,-209.2C179.83,-189.64 162.62,-157.43 150.48,-134.71"/>
<polygon fill="black" stroke="black" points="153.42,-132.78 145.62,-125.61 147.24,-136.08 153.42,-132.78"/>
</g>
<!-- kafka&#45;ui&#45;&gt;zookeeper -->
<g id="edge14" class="edge">
<title>kafka&#45;ui&#45;&gt;zookeeper</title>
<path fill="none" stroke="black" stroke-dasharray="1,5" d="M198.72,-209.15C196.99,-180.11 191.25,-119.92 172.45,-73 168.49,-63.12 162.54,-53.17 156.62,-44.56"/>
<polygon fill="black" stroke="black" points="159.46,-42.51 150.78,-36.44 153.78,-46.6 159.46,-42.51"/>
</g>
<!-- 9000 -->
<g id="node16" class="node">
<title>9000</title>
<ellipse fill="none" stroke="black" cx="199.45" cy="-333.23" rx="34.39" ry="34.39"/>
<text text-anchor="middle" x="199.45" y="-329.53" font-family="Times,serif" font-size="14.00">9000</text>
</g>
<!-- 9000&#45;&gt;kafka&#45;ui -->
<g id="edge16" class="edge">
<title>9000&#45;&gt;kafka&#45;ui</title>
<path fill="none" stroke="black" d="M199.45,-298.5C199.45,-284.71 199.45,-268.95 199.45,-255.87"/>
<polygon fill="black" stroke="black" points="202.95,-255.61 199.45,-245.61 195.95,-255.61 202.95,-255.61"/>
</g>
<!-- warcprox&#45;&gt;kafka -->
<g id="edge19" class="edge">
<title>warcprox&#45;&gt;kafka</title>
<path fill="none" stroke="black" stroke-dasharray="1,5" d="M655.43,-209.25C634.52,-193.32 600.82,-170.5 567.45,-159.89 454.94,-124.15 419.45,-157.59 302.45,-141.89 257.95,-135.93 207.48,-125.18 173.98,-117.47"/>
<polygon fill="black" stroke="black" points="174.69,-114.05 164.16,-115.19 173.11,-120.86 174.69,-114.05"/>
</g>
<!-- warcprox&#45;&gt;cdxserver -->
<g id="edge20" class="edge">
<title>warcprox&#45;&gt;cdxserver</title>
<path fill="none" stroke="black" stroke-dasharray="1,5" d="M664.76,-209.32C654.31,-194.94 637.98,-174.44 620.45,-159.89 606.91,-148.67 590.59,-138.57 575.52,-130.35"/>
<polygon fill="black" stroke="black" points="576.82,-127.08 566.34,-125.49 573.54,-133.26 576.82,-127.08"/>
</g>
<!-- warcprox&#45;&gt;acid.matkelly.com -->
<g id="edge21" class="edge">
<title>warcprox&#45;&gt;acid.matkelly.com</title>
<path fill="none" stroke="black" stroke-dasharray="1,5" d="M682.99,-209.2C690.42,-189.73 702.64,-157.72 711.31,-135.01"/>
<polygon fill="black" stroke="black" points="714.6,-136.2 714.9,-125.61 708.06,-133.7 714.6,-136.2"/>
</g>
<!-- warcprox&#45;&gt;crawl&#45;test&#45;site.webarchive.org.uk -->
<g id="edge22" class="edge">
<title>warcprox&#45;&gt;crawl&#45;test&#45;site.webarchive.org.uk</title>
<path fill="none" stroke="black" stroke-dasharray="1,5" d="M689.7,-209.08C702.23,-193.94 722.34,-172.45 744.45,-159.89 754.74,-154.05 808.77,-139.91 857.2,-127.93"/>
<polygon fill="black" stroke="black" points="858.24,-131.28 867.11,-125.49 856.57,-124.49 858.24,-131.28"/>
</g>
<!-- 8010 -->
<g id="node18" class="node">
<title>8010</title>
<ellipse fill="none" stroke="black" cx="867.45" cy="-439.13" rx="34.39" ry="34.39"/>
<text text-anchor="middle" x="867.45" y="-435.43" font-family="Times,serif" font-size="14.00">8010</text>
</g>
<!-- 8010&#45;&gt;webrender -->
<g id="edge18" class="edge">
<title>8010&#45;&gt;webrender</title>
<path fill="none" stroke="black" d="M844,-413.77C827.98,-397.13 806.84,-375.16 790.83,-358.53"/>
<polygon fill="black" stroke="black" points="793.33,-356.08 783.88,-351.3 788.29,-360.94 793.33,-356.08"/>
</g>
<!-- 8000 -->
<g id="node19" class="node">
<title>8000</title>
<ellipse fill="none" stroke="black" cx="668.45" cy="-333.23" rx="34.39" ry="34.39"/>
<text text-anchor="middle" x="668.45" y="-329.53" font-family="Times,serif" font-size="14.00">8000</text>
</g>
<!-- 8000&#45;&gt;warcprox -->
<g id="edge23" class="edge">
<title>8000&#45;&gt;warcprox</title>
<path fill="none" stroke="black" d="M671.02,-298.79C672.09,-284.89 673.32,-268.95 674.34,-255.75"/>
<polygon fill="black" stroke="black" points="677.85,-255.66 675.13,-245.42 670.87,-255.12 677.85,-255.66"/>
</g>
<!-- 9090 -->
<g id="node20" class="node">
<title>9090</title>
<ellipse fill="none" stroke="black" cx="544.45" cy="-227.34" rx="34.39" ry="34.39"/>
<text text-anchor="middle" x="544.45" y="-223.64" font-family="Times,serif" font-size="14.00">9090</text>
</g>
<!-- 9090&#45;&gt;cdxserver -->
<g id="edge24" class="edge">
<title>9090&#45;&gt;cdxserver</title>
<path fill="none" stroke="black" d="M540.19,-192.87C537.9,-174.89 535.11,-152.99 532.95,-136"/>
<polygon fill="black" stroke="black" points="536.37,-135.12 531.63,-125.64 529.42,-136 536.37,-135.12"/>
<text text-anchor="middle" x="556.95" y="-163.69" font-family="Times,serif" font-size="14.00">8080</text>
</g>
<!-- warc&#45;server -->
<g id="node21" class="node">
<title>warc&#45;server</title>
<polygon fill="none" stroke="black" points="412.95,-125.45 311.95,-125.45 311.95,-121.45 307.95,-121.45 307.95,-117.45 311.95,-117.45 311.95,-97.45 307.95,-97.45 307.95,-93.45 311.95,-93.45 311.95,-89.45 412.95,-89.45 412.95,-125.45"/>
<polyline fill="none" stroke="black" points="311.95,-121.45 315.95,-121.45 315.95,-117.45 311.95,-117.45 "/>
<polyline fill="none" stroke="black" points="311.95,-97.45 315.95,-97.45 315.95,-93.45 311.95,-93.45 "/>
<text text-anchor="middle" x="362.45" y="-103.75" font-family="Times,serif" font-size="14.00">warc&#45;server</text>
</g>
<!-- 8001 -->
<g id="node22" class="node">
<title>8001</title>
<ellipse fill="none" stroke="black" cx="288.45" cy="-227.34" rx="34.39" ry="34.39"/>
<text text-anchor="middle" x="288.45" y="-223.64" font-family="Times,serif" font-size="14.00">8001</text>
</g>
<!-- 8001&#45;&gt;warc&#45;server -->
<g id="edge25" class="edge">
<title>8001&#45;&gt;warc&#45;server</title>
<path fill="none" stroke="black" d="M289.33,-192.64C290.81,-181.63 293.76,-169.71 299.45,-159.89 305.75,-149.01 315.29,-139.47 325.06,-131.66"/>
<polygon fill="black" stroke="black" points="327.35,-134.32 333.25,-125.52 323.15,-128.72 327.35,-134.32"/>
<text text-anchor="middle" x="317.95" y="-163.69" font-family="Times,serif" font-size="14.00">8000</text>
</g>
<!-- openwayback -->
<g id="node23" class="node">
<title>openwayback</title>
<polygon fill="none" stroke="black" points="491.95,-245.34 378.95,-245.34 378.95,-241.34 374.95,-241.34 374.95,-237.34 378.95,-237.34 378.95,-217.34 374.95,-217.34 374.95,-213.34 378.95,-213.34 378.95,-209.34 491.95,-209.34 491.95,-245.34"/>
<polyline fill="none" stroke="black" points="378.95,-241.34 382.95,-241.34 382.95,-237.34 378.95,-237.34 "/>
<polyline fill="none" stroke="black" points="378.95,-217.34 382.95,-217.34 382.95,-213.34 378.95,-213.34 "/>
<text text-anchor="middle" x="435.45" y="-223.64" font-family="Times,serif" font-size="14.00">openwayback</text>
</g>
<!-- openwayback&#45;&gt;cdxserver -->
<g id="edge27" class="edge">
<title>openwayback&#45;&gt;cdxserver</title>
<path fill="none" stroke="black" stroke-dasharray="1,5" d="M449.12,-209.2C464.99,-189.29 491.31,-156.28 509.47,-133.5"/>
<polygon fill="black" stroke="black" points="512.26,-135.61 515.76,-125.61 506.79,-131.25 512.26,-135.61"/>
</g>
<!-- openwayback&#45;&gt;warc&#45;server -->
<g id="edge26" class="edge">
<title>openwayback&#45;&gt;warc&#45;server</title>
<path fill="none" stroke="black" stroke-dasharray="1,5" d="M424.83,-209.2C412.67,-189.55 392.6,-157.14 378.52,-134.4"/>
<polygon fill="black" stroke="black" points="381.31,-132.27 373.07,-125.61 375.36,-135.96 381.31,-132.27"/>
</g>
<!-- 8080 -->
<g id="node24" class="node">
<title>8080</title>
<ellipse fill="none" stroke="black" cx="544.45" cy="-333.23" rx="34.39" ry="34.39"/>
<text text-anchor="middle" x="544.45" y="-329.53" font-family="Times,serif" font-size="14.00">8080</text>
</g>
<!-- 8080&#45;&gt;openwayback -->
<g id="edge28" class="edge">
<title>8080&#45;&gt;openwayback</title>
<path fill="none" stroke="black" d="M519.99,-308.92C502.3,-292.06 478.48,-269.36 460.63,-252.34"/>
<polygon fill="black" stroke="black" points="463.04,-249.8 453.38,-245.44 458.21,-254.87 463.04,-249.8"/>
</g>
<!-- 8090 -->
<g id="node25" class="node">
<title>8090</title>
<ellipse fill="none" stroke="black" cx="380.45" cy="-333.23" rx="34.39" ry="34.39"/>
<text text-anchor="middle" x="380.45" y="-329.53" font-family="Times,serif" font-size="14.00">8090</text>
</g>
<!-- 8090&#45;&gt;openwayback -->
<g id="edge29" class="edge">
<title>8090&#45;&gt;openwayback</title>
<path fill="none" stroke="black" d="M396.21,-302.46C404.23,-287.31 413.89,-269.07 421.62,-254.47"/>
<polygon fill="black" stroke="black" points="424.79,-255.95 426.38,-245.47 418.61,-252.67 424.79,-255.95"/>
</g>
<!-- 180 -->
<g id="node26" class="node">
<title>180</title>
<ellipse fill="none" stroke="black" cx="764.45" cy="-227.34" rx="28.7" ry="28.7"/>
<text text-anchor="middle" x="764.45" y="-223.64" font-family="Times,serif" font-size="14.00">180</text>
</g>
<!-- 180&#45;&gt;acid.matkelly.com -->
<g id="edge30" class="edge">
<title>180&#45;&gt;acid.matkelly.com</title>
<path fill="none" stroke="black" d="M754.9,-200.18C747.87,-180.88 738.32,-154.72 731.23,-135.27"/>
<polygon fill="black" stroke="black" points="734.48,-133.98 727.77,-125.78 727.91,-136.38 734.48,-133.98"/>
<text text-anchor="middle" x="754.95" y="-163.69" font-family="Times,serif" font-size="14.00">80</text>
</g>
<!-- 280 -->
<g id="node27" class="node">
<title>280</title>
<ellipse fill="none" stroke="black" cx="899.45" cy="-227.34" rx="28.7" ry="28.7"/>
<text text-anchor="middle" x="899.45" y="-223.64" font-family="Times,serif" font-size="14.00">280</text>
</g>
<!-- 280&#45;&gt;crawl&#45;test&#45;site.webarchive.org.uk -->
<g id="edge31" class="edge">
<title>280&#45;&gt;crawl&#45;test&#45;site.webarchive.org.uk</title>
<path fill="none" stroke="black" d="M908.2,-199.88C914.56,-180.66 923.13,-154.74 929.53,-135.4"/>
<polygon fill="black" stroke="black" points="932.92,-136.29 932.74,-125.7 926.28,-134.09 932.92,-136.29"/>
<text text-anchor="middle" x="929.95" y="-163.69" font-family="Times,serif" font-size="14.00">80</text>
</g>
<!-- robot -->
<g id="node28" class="node">
<title>robot</title>
<polygon fill="none" stroke="black" points="345.95,-577.02 290.95,-577.02 290.95,-573.02 286.95,-573.02 286.95,-569.02 290.95,-569.02 290.95,-549.02 286.95,-549.02 286.95,-545.02 290.95,-545.02 290.95,-541.02 345.95,-541.02 345.95,-577.02"/>
<polyline fill="none" stroke="black" points="290.95,-573.02 294.95,-573.02 294.95,-569.02 290.95,-569.02 "/>
<polyline fill="none" stroke="black" points="290.95,-549.02 294.95,-549.02 294.95,-545.02 290.95,-545.02 "/>
<text text-anchor="middle" x="318.45" y="-555.32" font-family="Times,serif" font-size="14.00">robot</text>
</g>
<!-- robot&#45;&gt;heritrix -->
<g id="edge34" class="edge">
<title>robot&#45;&gt;heritrix</title>
<path fill="none" stroke="black" stroke-dasharray="1,5" d="M346.06,-546.72C395.91,-526.31 501.33,-483.16 561.63,-458.47"/>
<polygon fill="black" stroke="black" points="562.98,-461.71 570.9,-454.68 560.32,-455.23 562.98,-461.71"/>
</g>
<!-- robot&#45;&gt;kafka -->
<g id="edge32" class="edge">
<title>robot&#45;&gt;kafka</title>
<path fill="none" stroke="black" stroke-dasharray="1,5" d="M290.78,-556.05C231.27,-550.15 96.45,-527.19 96.45,-440.13 96.45,-440.13 96.45,-440.13 96.45,-226.34 96.45,-193.48 110.56,-158.06 122.02,-134.72"/>
<polygon fill="black" stroke="black" points="125.14,-136.3 126.56,-125.8 118.9,-133.12 125.14,-136.3"/>
</g>
<!-- robot&#45;&gt;cdxserver -->
<g id="edge33" class="edge">
<title>robot&#45;&gt;cdxserver</title>
<path fill="none" stroke="black" stroke-dasharray="1,5" d="M318.54,-540.73C319.24,-475.74 324.87,-246.98 369.45,-192.89 396.93,-159.55 441.08,-137.66 476.04,-124.54"/>
<polygon fill="black" stroke="black" points="477.43,-127.76 485.64,-121.07 475.05,-121.18 477.43,-127.76"/>
</g>
</g>
</svg>
