<?xml version="1.0" encoding="UTF-8" standalone="no"?>
<!DOCTYPE svg PUBLIC "-//W3C//DTD SVG 1.1//EN"
 "http://www.w3.org/Graphics/SVG/1.1/DTD/svg11.dtd">
<!-- Generated by graphviz version 2.44.0 ()
 -->
<!-- Pages: 1 -->
<svg width="3743pt" height="588pt"
 viewBox="0.00 0.00 3742.89 587.58" xmlns="http://www.w3.org/2000/svg" xmlns:xlink="http://www.w3.org/1999/xlink">
<g id="graph0" class="graph" transform="scale(1 1) rotate(0) translate(36 551.58)">
<polygon fill="#ffffff" stroke="transparent" points="-36,36 -36,-551.58 3706.89,-551.58 3706.89,36 -36,36"/>
<!-- heritrix -->
<g id="node1" class="node">
<title>heritrix</title>
<polygon fill="none" stroke="black" points="1415.95,-36 1344.95,-36 1344.95,-32 1340.95,-32 1340.95,-28 1344.95,-28 1344.95,-8 1340.95,-8 1340.95,-4 1344.95,-4 1344.95,0 1415.95,0 1415.95,-36"/>
<polyline fill="none" stroke="black" points="1344.95,-32 1348.95,-32 1348.95,-28 1344.95,-28 "/>
<polyline fill="none" stroke="black" points="1344.95,-8 1348.95,-8 1348.95,-4 1344.95,-4 "/>
<text text-anchor="middle" x="1380.45" y="-14.3" font-family="Times,serif" font-size="14.00">heritrix</text>
</g>
<!-- clamd -->
<g id="node2" class="node">
<title>clamd</title>
<polygon fill="none" stroke="black" points="573.95,-139.45 514.95,-139.45 514.95,-135.45 510.95,-135.45 510.95,-131.45 514.95,-131.45 514.95,-111.45 510.95,-111.45 510.95,-107.45 514.95,-107.45 514.95,-103.45 573.95,-103.45 573.95,-139.45"/>
<polyline fill="none" stroke="black" points="514.95,-135.45 518.95,-135.45 518.95,-131.45 514.95,-131.45 "/>
<polyline fill="none" stroke="black" points="514.95,-111.45 518.95,-111.45 518.95,-107.45 514.95,-107.45 "/>
<text text-anchor="middle" x="544.45" y="-117.75" font-family="Times,serif" font-size="14.00">clamd</text>
</g>
<!-- clamd&#45;&gt;heritrix -->
<g id="edge1" class="edge">
<title>clamd&#45;&gt;heritrix</title>
<path fill="none" stroke="black" d="M559.53,-103.36C565.96,-97.18 573.94,-90.8 582.45,-87 696.47,-36.11 737.12,-65.54 861.45,-54 1035.96,-37.81 1244.14,-26.05 1334.66,-21.31"/>
<polygon fill="black" stroke="black" points="1335.04,-24.8 1344.85,-20.78 1334.68,-17.81 1335.04,-24.8"/>
</g>
<!-- kafka -->
<g id="node3" class="node">
<title>kafka</title>
<polygon fill="none" stroke="black" points="141.95,-139.45 86.95,-139.45 86.95,-135.45 82.95,-135.45 82.95,-131.45 86.95,-131.45 86.95,-111.45 82.95,-111.45 82.95,-107.45 86.95,-107.45 86.95,-103.45 141.95,-103.45 141.95,-139.45"/>
<polyline fill="none" stroke="black" points="86.95,-135.45 90.95,-135.45 90.95,-131.45 86.95,-131.45 "/>
<polyline fill="none" stroke="black" points="86.95,-111.45 90.95,-111.45 90.95,-107.45 86.95,-107.45 "/>
<text text-anchor="middle" x="114.45" y="-117.75" font-family="Times,serif" font-size="14.00">kafka</text>
</g>
<!-- kafka&#45;&gt;heritrix -->
<g id="edge2" class="edge">
<title>kafka&#45;&gt;heritrix</title>
<path fill="none" stroke="black" d="M129.03,-103.23C135.06,-97.18 142.49,-90.92 150.45,-87 229.28,-48.12 257.99,-62.84 345.45,-54 541.56,-34.18 1161.04,-22.64 1334.76,-19.73"/>
<polygon fill="black" stroke="black" points="1334.9,-23.23 1344.84,-19.56 1334.78,-16.23 1334.9,-23.23"/>
</g>
<!-- zookeeper -->
<g id="node22" class="node">
<title>zookeeper</title>
<polygon fill="none" stroke="black" points="98.95,-36 9.95,-36 9.95,-32 5.95,-32 5.95,-28 9.95,-28 9.95,-8 5.95,-8 5.95,-4 9.95,-4 9.95,0 98.95,0 98.95,-36"/>
<polyline fill="none" stroke="black" points="9.95,-32 13.95,-32 13.95,-28 9.95,-28 "/>
<polyline fill="none" stroke="black" points="9.95,-8 13.95,-8 13.95,-4 9.95,-4 "/>
<text text-anchor="middle" x="54.45" y="-14.3" font-family="Times,serif" font-size="14.00">zookeeper</text>
</g>
<!-- kafka&#45;&gt;zookeeper -->
<g id="edge20" class="edge">
<title>kafka&#45;&gt;zookeeper</title>
<path fill="none" stroke="black" stroke-dasharray="1,5" d="M104.27,-103.24C94.83,-87.28 80.65,-63.31 69.83,-45.01"/>
<polygon fill="black" stroke="black" points="72.78,-43.12 64.68,-36.29 66.75,-46.68 72.78,-43.12"/>
</g>
<!-- webrender -->
<g id="node4" class="node">
<title>webrender</title>
<polygon fill="none" stroke="black" points="2013.45,-139.45 1919.45,-139.45 1919.45,-135.45 1915.45,-135.45 1915.45,-131.45 1919.45,-131.45 1919.45,-111.45 1915.45,-111.45 1915.45,-107.45 1919.45,-107.45 1919.45,-103.45 2013.45,-103.45 2013.45,-139.45"/>
<polyline fill="none" stroke="black" points="1919.45,-135.45 1923.45,-135.45 1923.45,-131.45 1919.45,-131.45 "/>
<polyline fill="none" stroke="black" points="1919.45,-111.45 1923.45,-111.45 1923.45,-107.45 1919.45,-107.45 "/>
<text text-anchor="middle" x="1966.45" y="-117.75" font-family="Times,serif" font-size="14.00">webrender</text>
</g>
<!-- webrender&#45;&gt;heritrix -->
<g id="edge3" class="edge">
<title>webrender&#45;&gt;heritrix</title>
<path fill="none" stroke="black" d="M1919.32,-104.47C1872.29,-89.15 1797.68,-66.56 1731.45,-54 1623.22,-33.47 1493.79,-24.51 1426.39,-21"/>
<polygon fill="black" stroke="black" points="1426.28,-17.49 1416.12,-20.48 1425.93,-24.48 1426.28,-17.49"/>
</g>
<!-- cdxserver -->
<g id="node5" class="node">
<title>cdxserver</title>
<polygon fill="none" stroke="black" points="1650.95,-139.45 1563.95,-139.45 1563.95,-135.45 1559.95,-135.45 1559.95,-131.45 1563.95,-131.45 1563.95,-111.45 1559.95,-111.45 1559.95,-107.45 1563.95,-107.45 1563.95,-103.45 1650.95,-103.45 1650.95,-139.45"/>
<polyline fill="none" stroke="black" points="1563.95,-135.45 1567.95,-135.45 1567.95,-131.45 1563.95,-131.45 "/>
<polyline fill="none" stroke="black" points="1563.95,-111.45 1567.95,-111.45 1567.95,-107.45 1563.95,-107.45 "/>
<text text-anchor="middle" x="1607.45" y="-117.75" font-family="Times,serif" font-size="14.00">cdxserver</text>
</g>
<!-- cdxserver&#45;&gt;heritrix -->
<g id="edge4" class="edge">
<title>cdxserver&#45;&gt;heritrix</title>
<path fill="none" stroke="black" d="M1581.96,-103.44C1573.36,-97.95 1563.62,-92 1554.45,-87 1523.89,-70.35 1515.75,-66.95 1483.45,-54 1464.81,-46.53 1443.89,-39.23 1425.8,-33.24"/>
<polygon fill="black" stroke="black" points="1426.66,-29.84 1416.07,-30.06 1424.48,-36.49 1426.66,-29.84"/>
</g>
<!-- acid.matkelly.com -->
<g id="node6" class="node">
<title>acid.matkelly.com</title>
<polygon fill="none" stroke="black" points="1893.95,-379.23 1750.95,-379.23 1750.95,-375.23 1746.95,-375.23 1746.95,-371.23 1750.95,-371.23 1750.95,-351.23 1746.95,-351.23 1746.95,-347.23 1750.95,-347.23 1750.95,-343.23 1893.95,-343.23 1893.95,-379.23"/>
<polyline fill="none" stroke="black" points="1750.95,-375.23 1754.95,-375.23 1754.95,-371.23 1750.95,-371.23 "/>
<polyline fill="none" stroke="black" points="1750.95,-351.23 1754.95,-351.23 1754.95,-347.23 1750.95,-347.23 "/>
<text text-anchor="middle" x="1822.45" y="-357.53" font-family="Times,serif" font-size="14.00">acid.matkelly.com</text>
</g>
<!-- acid.matkelly.com&#45;&gt;heritrix -->
<g id="edge5" class="edge">
<title>acid.matkelly.com&#45;&gt;heritrix</title>
<path fill="none" stroke="black" d="M1798.96,-343.03C1779.45,-327.54 1752.4,-303.06 1736.45,-275.79 1692.57,-200.76 1738.9,-155.54 1685.45,-87 1666.97,-63.31 1654.91,-63.61 1626.45,-54 1559.1,-31.26 1476.53,-23.29 1426.24,-20.5"/>
<polygon fill="black" stroke="black" points="1426.18,-16.99 1416.01,-19.98 1425.82,-23.99 1426.18,-16.99"/>
</g>
<!-- warcprox -->
<g id="node28" class="node">
<title>warcprox</title>
<polygon fill="none" stroke="black" points="2007.95,-259.34 1924.95,-259.34 1924.95,-255.34 1920.95,-255.34 1920.95,-251.34 1924.95,-251.34 1924.95,-231.34 1920.95,-231.34 1920.95,-227.34 1924.95,-227.34 1924.95,-223.34 2007.95,-223.34 2007.95,-259.34"/>
<polyline fill="none" stroke="black" points="1924.95,-255.34 1928.95,-255.34 1928.95,-251.34 1924.95,-251.34 "/>
<polyline fill="none" stroke="black" points="1924.95,-231.34 1928.95,-231.34 1928.95,-227.34 1924.95,-227.34 "/>
<text text-anchor="middle" x="1966.45" y="-237.64" font-family="Times,serif" font-size="14.00">warcprox</text>
</g>
<!-- acid.matkelly.com&#45;&gt;warcprox -->
<g id="edge29" class="edge">
<title>acid.matkelly.com&#45;&gt;warcprox</title>
<path fill="none" stroke="black" d="M1843.39,-343.09C1868.23,-322.75 1909.8,-288.72 1937.66,-265.91"/>
<polygon fill="black" stroke="black" points="1939.96,-268.55 1945.48,-259.5 1935.53,-263.13 1939.96,-268.55"/>
</g>
<!-- crawl&#45;test&#45;site.webarchive.org.uk -->
<g id="node7" class="node">
<title>crawl&#45;test&#45;site.webarchive.org.uk</title>
<polygon fill="none" stroke="black" points="2323.95,-379.23 2068.95,-379.23 2068.95,-375.23 2064.95,-375.23 2064.95,-371.23 2068.95,-371.23 2068.95,-351.23 2064.95,-351.23 2064.95,-347.23 2068.95,-347.23 2068.95,-343.23 2323.95,-343.23 2323.95,-379.23"/>
<polyline fill="none" stroke="black" points="2068.95,-375.23 2072.95,-375.23 2072.95,-371.23 2068.95,-371.23 "/>
<polyline fill="none" stroke="black" points="2068.95,-351.23 2072.95,-351.23 2072.95,-347.23 2068.95,-347.23 "/>
<text text-anchor="middle" x="2196.45" y="-357.53" font-family="Times,serif" font-size="14.00">crawl&#45;test&#45;site.webarchive.org.uk</text>
</g>
<!-- crawl&#45;test&#45;site.webarchive.org.uk&#45;&gt;heritrix -->
<g id="edge6" class="edge">
<title>crawl&#45;test&#45;site.webarchive.org.uk&#45;&gt;heritrix</title>
<path fill="none" stroke="black" d="M2212.05,-343.17C2236.92,-313.79 2280.08,-252.45 2252.45,-206.89 2192.67,-108.33 2132.32,-121.89 2022.45,-87 1910.88,-51.57 1553.97,-28.69 1426.36,-21.46"/>
<polygon fill="black" stroke="black" points="1426.33,-17.96 1416.15,-20.89 1425.94,-24.94 1426.33,-17.96"/>
</g>
<!-- crawl&#45;test&#45;site.webarchive.org.uk&#45;&gt;warcprox -->
<g id="edge30" class="edge">
<title>crawl&#45;test&#45;site.webarchive.org.uk&#45;&gt;warcprox</title>
<path fill="none" stroke="black" d="M2156.19,-343.17C2119.37,-327.12 2063.76,-301.73 2017.45,-275.79 2011.49,-272.45 2005.3,-268.67 1999.36,-264.88"/>
<polygon fill="black" stroke="black" points="2001.21,-261.91 1990.92,-259.38 1997.39,-267.77 2001.21,-261.91"/>
</g>
<!-- dvc:rw -->
<g id="node8" class="node">
<title>dvc:rw</title>
<polygon fill="none" stroke="black" points="1721.95,-379.23 1656.95,-379.23 1656.95,-375.23 1652.95,-375.23 1652.95,-371.23 1656.95,-371.23 1656.95,-351.23 1652.95,-351.23 1652.95,-347.23 1656.95,-347.23 1656.95,-343.23 1721.95,-343.23 1721.95,-379.23"/>
<polyline fill="none" stroke="black" points="1656.95,-375.23 1660.95,-375.23 1660.95,-371.23 1656.95,-371.23 "/>
<polyline fill="none" stroke="black" points="1656.95,-351.23 1660.95,-351.23 1660.95,-347.23 1656.95,-347.23 "/>
<text text-anchor="middle" x="1689.45" y="-357.53" font-family="Times,serif" font-size="14.00">dvc:rw</text>
</g>
<!-- dvc:rw&#45;&gt;heritrix -->
<g id="edge7" class="edge">
<title>dvc:rw&#45;&gt;heritrix</title>
<path fill="none" stroke="black" stroke-dasharray="5,2" d="M1690.03,-342.93C1691.48,-288.98 1692.98,-125.19 1659.45,-87 1629.04,-52.36 1497,-32.29 1426.01,-23.81"/>
<polygon fill="black" stroke="black" points="1426.34,-20.32 1416,-22.64 1425.53,-27.27 1426.34,-20.32"/>
</g>
<!-- dvc:rw&#45;&gt;warcprox -->
<g id="edge31" class="edge">
<title>dvc:rw&#45;&gt;warcprox</title>
<path fill="none" stroke="black" stroke-dasharray="5,2" d="M1712.96,-343.08C1721.61,-337.33 1731.68,-331.25 1741.45,-326.79 1814.75,-293.31 1842.29,-309.59 1915.45,-275.79 1922.12,-272.7 1928.93,-268.83 1935.3,-264.83"/>
<polygon fill="black" stroke="black" points="1937.23,-267.75 1943.68,-259.34 1933.39,-261.89 1937.23,-267.75"/>
</g>
<!-- ./docker/jmx_prometheus_javaagent&#45;0.3.1.jar -->
<g id="node9" class="node">
<title>./docker/jmx_prometheus_javaagent&#45;0.3.1.jar</title>
<polygon fill="none" stroke="black" points="497.45,-139.45 494.45,-143.45 473.45,-143.45 470.45,-139.45 159.45,-139.45 159.45,-103.45 497.45,-103.45 497.45,-139.45"/>
<text text-anchor="middle" x="328.45" y="-117.75" font-family="Times,serif" font-size="14.00">./docker/jmx_prometheus_javaagent&#45;0.3.1.jar</text>
</g>
<!-- ./docker/jmx_prometheus_javaagent&#45;0.3.1.jar&#45;&gt;heritrix -->
<g id="edge8" class="edge">
<title>./docker/jmx_prometheus_javaagent&#45;0.3.1.jar&#45;&gt;heritrix</title>
<path fill="none" stroke="black" stroke-dasharray="5,2" d="M335.55,-93.31C340.79,-79.05 349.49,-62.75 363.45,-54 405.05,-27.9 1141.98,-20.73 1334.66,-19.3"/>
<polygon fill="black" stroke="black" points="332.1,-92.61 332.32,-103.2 338.75,-94.78 332.1,-92.61"/>
<polygon fill="black" stroke="black" points="1334.76,-22.8 1344.73,-19.23 1334.71,-15.8 1334.76,-22.8"/>
<text text-anchor="middle" x="495.95" y="-57.8" font-family="Times,serif" font-size="14.00">/jmx_prometheus_javaagent&#45;0.3.1.jar</text>
</g>
<!-- ./docker/heritrix&#45;jmx&#45;config.yml -->
<g id="node10" class="node">
<title>./docker/heritrix&#45;jmx&#45;config.yml</title>
<polygon fill="none" stroke="black" points="830.95,-139.45 827.95,-143.45 806.95,-143.45 803.95,-139.45 591.95,-139.45 591.95,-103.45 830.95,-103.45 830.95,-139.45"/>
<text text-anchor="middle" x="711.45" y="-117.75" font-family="Times,serif" font-size="14.00">./docker/heritrix&#45;jmx&#45;config.yml</text>
</g>
<!-- ./docker/heritrix&#45;jmx&#45;config.yml&#45;&gt;heritrix -->
<g id="edge9" class="edge">
<title>./docker/heritrix&#45;jmx&#45;config.yml&#45;&gt;heritrix</title>
<path fill="none" stroke="black" stroke-dasharray="5,2" d="M765.57,-99.83C808.12,-84.54 869.21,-64.59 924.45,-54 1072.7,-25.57 1252.25,-20.06 1334.85,-19.11"/>
<polygon fill="black" stroke="black" points="764.19,-96.61 755.98,-103.31 766.58,-103.19 764.19,-96.61"/>
<polygon fill="black" stroke="black" points="1334.94,-22.61 1344.9,-19.01 1334.87,-15.61 1334.94,-22.61"/>
<text text-anchor="middle" x="978.95" y="-57.8" font-family="Times,serif" font-size="14.00">/jmx&#45;config.yml</text>
</g>
<!-- ./jobs/frequent/uriuniqfilter&#45;bloom.xml -->
<g id="node11" class="node">
<title>./jobs/frequent/uriuniqfilter&#45;bloom.xml</title>
<polygon fill="none" stroke="black" points="1139.45,-139.45 1136.45,-143.45 1115.45,-143.45 1112.45,-139.45 849.45,-139.45 849.45,-103.45 1139.45,-103.45 1139.45,-139.45"/>
<text text-anchor="middle" x="994.45" y="-117.75" font-family="Times,serif" font-size="14.00">./jobs/frequent/uriuniqfilter&#45;bloom.xml</text>
</g>
<!-- ./jobs/frequent/uriuniqfilter&#45;bloom.xml&#45;&gt;heritrix -->
<g id="edge10" class="edge">
<title>./jobs/frequent/uriuniqfilter&#45;bloom.xml&#45;&gt;heritrix</title>
<path fill="none" stroke="black" stroke-dasharray="5,2" d="M1011.43,-95.08C1022.67,-80.49 1038.75,-63.26 1057.45,-54 1104.99,-30.44 1257.13,-22.61 1334.43,-20.11"/>
<polygon fill="black" stroke="black" points="1008.5,-93.16 1005.39,-103.29 1014.14,-97.31 1008.5,-93.16"/>
<polygon fill="black" stroke="black" points="1334.93,-23.59 1344.82,-19.79 1334.72,-16.6 1334.93,-23.59"/>
<text text-anchor="middle" x="1167.45" y="-57.8" font-family="Times,serif" font-size="14.00">/jobs/frequent/uriuniqfilter.xml</text>
</g>
<!-- ./docker/shared -->
<g id="node12" class="node">
<title>./docker/shared</title>
<polygon fill="none" stroke="black" points="1284.95,-139.45 1281.95,-143.45 1260.95,-143.45 1257.95,-139.45 1157.95,-139.45 1157.95,-103.45 1284.95,-103.45 1284.95,-139.45"/>
<text text-anchor="middle" x="1221.45" y="-117.75" font-family="Times,serif" font-size="14.00">./docker/shared</text>
</g>
<!-- ./docker/shared&#45;&gt;heritrix -->
<g id="edge11" class="edge">
<title>./docker/shared&#45;&gt;heritrix</title>
<path fill="none" stroke="black" stroke-dasharray="5,2" d="M1246.89,-96.6C1262.22,-83.02 1282.56,-66.31 1302.45,-54 1312.8,-47.59 1324.53,-41.69 1335.68,-36.64"/>
<polygon fill="black" stroke="black" points="1244.45,-94.09 1239.36,-103.38 1249.14,-99.29 1244.45,-94.09"/>
<polygon fill="black" stroke="black" points="1337.13,-39.83 1344.88,-32.6 1334.31,-33.42 1337.13,-39.83"/>
<text text-anchor="middle" x="1329.45" y="-57.8" font-family="Times,serif" font-size="14.00">/shared</text>
</g>
<!-- 8443 -->
<g id="node13" class="node">
<title>8443</title>
<ellipse fill="none" stroke="black" cx="1337.45" cy="-121.45" rx="34.39" ry="34.39"/>
<text text-anchor="middle" x="1337.45" y="-117.75" font-family="Times,serif" font-size="14.00">8443</text>
</g>
<!-- 8443&#45;&gt;heritrix -->
<g id="edge12" class="edge">
<title>8443&#45;&gt;heritrix</title>
<path fill="none" stroke="black" d="M1350.58,-89.46C1356.49,-75.53 1363.39,-59.25 1369.07,-45.84"/>
<polygon fill="black" stroke="black" points="1372.46,-46.82 1373.14,-36.24 1366.01,-44.09 1372.46,-46.82"/>
</g>
<!-- 9101 -->
<g id="node14" class="node">
<title>9101</title>
<ellipse fill="none" stroke="black" cx="1424.45" cy="-121.45" rx="34.39" ry="34.39"/>
<text text-anchor="middle" x="1424.45" y="-117.75" font-family="Times,serif" font-size="14.00">9101</text>
</g>
<!-- 9101&#45;&gt;heritrix -->
<g id="edge13" class="edge">
<title>9101&#45;&gt;heritrix</title>
<path fill="none" stroke="black" d="M1411.01,-89.46C1404.91,-75.39 1397.76,-58.93 1391.92,-45.45"/>
<polygon fill="black" stroke="black" points="1395.12,-44.03 1387.93,-36.24 1388.69,-46.81 1395.12,-44.03"/>
</g>
<!-- 9119 -->
<g id="node15" class="node">
<title>9119</title>
<ellipse fill="none" stroke="black" cx="1511.45" cy="-121.45" rx="34.39" ry="34.39"/>
<text text-anchor="middle" x="1511.45" y="-117.75" font-family="Times,serif" font-size="14.00">9119</text>
</g>
<!-- 9119&#45;&gt;heritrix -->
<g id="edge14" class="edge">
<title>9119&#45;&gt;heritrix</title>
<path fill="none" stroke="black" d="M1484.62,-99.67C1463.12,-83.02 1432.94,-59.65 1410.6,-42.35"/>
<polygon fill="black" stroke="black" points="1412.51,-39.4 1402.46,-36.05 1408.22,-44.94 1412.51,-39.4"/>
<text text-anchor="middle" x="1460.95" y="-57.8" font-family="Times,serif" font-size="14.00">9118</text>
</g>
<!-- dvc -->
<g id="node16" class="node">
<title>dvc</title>
<polygon fill="none" stroke="black" points="2756.45,-379.23 2702.45,-379.23 2702.45,-375.23 2698.45,-375.23 2698.45,-371.23 2702.45,-371.23 2702.45,-351.23 2698.45,-351.23 2698.45,-347.23 2702.45,-347.23 2702.45,-343.23 2756.45,-343.23 2756.45,-379.23"/>
<polyline fill="none" stroke="black" points="2702.45,-375.23 2706.45,-375.23 2706.45,-371.23 2702.45,-371.23 "/>
<polyline fill="none" stroke="black" points="2702.45,-351.23 2706.45,-351.23 2706.45,-347.23 2702.45,-347.23 "/>
<text text-anchor="middle" x="2729.45" y="-357.53" font-family="Times,serif" font-size="14.00">dvc</text>
</g>
<!-- ./target/testing/heritrix/output -->
<g id="node17" class="node">
<title>./target/testing/heritrix/output</title>
<polygon fill="none" stroke="black" points="2477.95,-499.13 2474.95,-503.13 2453.95,-503.13 2450.95,-499.13 2242.95,-499.13 2242.95,-463.13 2477.95,-463.13 2477.95,-499.13"/>
<text text-anchor="middle" x="2360.45" y="-477.43" font-family="Times,serif" font-size="14.00">./target/testing/heritrix/output</text>
</g>
<!-- ./target/testing/heritrix/output&#45;&gt;dvc -->
<g id="edge15" class="edge">
<title>./target/testing/heritrix/output&#45;&gt;dvc</title>
<path fill="none" stroke="black" stroke-dasharray="5,2" d="M2415.5,-459.49C2452.58,-445.85 2502.7,-427.94 2547.45,-413.68 2597.21,-397.83 2655.39,-381.82 2692.32,-371.96"/>
<polygon fill="black" stroke="black" points="2414.06,-456.29 2405.89,-463.04 2416.48,-462.86 2414.06,-456.29"/>
<polygon fill="black" stroke="black" points="2693.38,-375.3 2702.15,-369.35 2691.58,-368.53 2693.38,-375.3"/>
<text text-anchor="middle" x="2602.95" y="-417.48" font-family="Times,serif" font-size="14.00">/heritrix/output</text>
</g>
<!-- ./target/testing/heritrix/state -->
<g id="node18" class="node">
<title>./target/testing/heritrix/state</title>
<polygon fill="none" stroke="black" points="2720.45,-499.13 2717.45,-503.13 2696.45,-503.13 2693.45,-499.13 2496.45,-499.13 2496.45,-463.13 2720.45,-463.13 2720.45,-499.13"/>
<text text-anchor="middle" x="2608.45" y="-477.43" font-family="Times,serif" font-size="14.00">./target/testing/heritrix/state</text>
</g>
<!-- ./target/testing/heritrix/state&#45;&gt;dvc -->
<g id="edge16" class="edge">
<title>./target/testing/heritrix/state&#45;&gt;dvc</title>
<path fill="none" stroke="black" stroke-dasharray="5,2" d="M2633.22,-456C2654.05,-435.69 2683.71,-406.8 2704.57,-386.47"/>
<polygon fill="black" stroke="black" points="2630.76,-453.5 2626.04,-462.99 2635.65,-458.51 2630.76,-453.5"/>
<polygon fill="black" stroke="black" points="2707.11,-388.88 2711.83,-379.4 2702.23,-383.87 2707.11,-388.88"/>
<text text-anchor="middle" x="2726.45" y="-417.48" font-family="Times,serif" font-size="14.00">/heritrix/state</text>
</g>
<!-- ./target/testing/heritrix/wren -->
<g id="node19" class="node">
<title>./target/testing/heritrix/wren</title>
<polygon fill="none" stroke="black" points="2962.45,-499.13 2959.45,-503.13 2938.45,-503.13 2935.45,-499.13 2738.45,-499.13 2738.45,-463.13 2962.45,-463.13 2962.45,-499.13"/>
<text text-anchor="middle" x="2850.45" y="-477.43" font-family="Times,serif" font-size="14.00">./target/testing/heritrix/wren</text>
</g>
<!-- ./target/testing/heritrix/wren&#45;&gt;dvc -->
<g id="edge17" class="edge">
<title>./target/testing/heritrix/wren&#45;&gt;dvc</title>
<path fill="none" stroke="black" stroke-dasharray="5,2" d="M2825.68,-456C2804.84,-435.69 2775.19,-406.8 2754.32,-386.47"/>
<polygon fill="black" stroke="black" points="2823.25,-458.51 2832.85,-462.99 2828.13,-453.5 2823.25,-458.51"/>
<polygon fill="black" stroke="black" points="2756.67,-383.87 2747.06,-379.4 2751.78,-388.88 2756.67,-383.87"/>
<text text-anchor="middle" x="2847.45" y="-417.48" font-family="Times,serif" font-size="14.00">/heritrix/wren</text>
</g>
<!-- ./target/testing/heritrix/scratch -->
<g id="node20" class="node">
<title>./target/testing/heritrix/scratch</title>
<polygon fill="none" stroke="black" points="3220.45,-499.13 3217.45,-503.13 3196.45,-503.13 3193.45,-499.13 2980.45,-499.13 2980.45,-463.13 3220.45,-463.13 3220.45,-499.13"/>
<text text-anchor="middle" x="3100.45" y="-477.43" font-family="Times,serif" font-size="14.00">./target/testing/heritrix/scratch</text>
</g>
<!-- ./target/testing/heritrix/scratch&#45;&gt;dvc -->
<g id="edge18" class="edge">
<title>./target/testing/heritrix/scratch&#45;&gt;dvc</title>
<path fill="none" stroke="black" stroke-dasharray="5,2" d="M3040.97,-459.72C3001.51,-446.32 2948.51,-428.57 2901.45,-413.68 2855.06,-399 2801.3,-383.1 2766.4,-372.92"/>
<polygon fill="black" stroke="black" points="3040.11,-463.13 3050.7,-463.03 3042.36,-456.5 3040.11,-463.13"/>
<polygon fill="black" stroke="black" points="2767.22,-369.51 2756.64,-370.08 2765.26,-376.23 2767.22,-369.51"/>
<text text-anchor="middle" x="3003.45" y="-417.48" font-family="Times,serif" font-size="14.00">/heritrix/scratch</text>
</g>
<!-- 3310 -->
<g id="node21" class="node">
<title>3310</title>
<ellipse fill="none" stroke="black" cx="544.45" cy="-241.34" rx="34.39" ry="34.39"/>
<text text-anchor="middle" x="544.45" y="-237.64" font-family="Times,serif" font-size="14.00">3310</text>
</g>
<!-- 3310&#45;&gt;clamd -->
<g id="edge19" class="edge">
<title>3310&#45;&gt;clamd</title>
<path fill="none" stroke="black" d="M544.45,-206.87C544.45,-188.89 544.45,-166.99 544.45,-150"/>
<polygon fill="black" stroke="black" points="547.95,-149.64 544.45,-139.64 540.95,-149.64 547.95,-149.64"/>
</g>
<!-- /var/run/docker.sock -->
<g id="node23" class="node">
<title>/var/run/docker.sock</title>
<polygon fill="none" stroke="black" points="1906.95,-259.34 1903.95,-263.34 1882.95,-263.34 1879.95,-259.34 1745.95,-259.34 1745.95,-223.34 1906.95,-223.34 1906.95,-259.34"/>
<text text-anchor="middle" x="1826.45" y="-237.64" font-family="Times,serif" font-size="14.00">/var/run/docker.sock</text>
</g>
<!-- /var/run/docker.sock&#45;&gt;kafka -->
<g id="edge21" class="edge">
<title>/var/run/docker.sock&#45;&gt;kafka</title>
<path fill="none" stroke="black" stroke-dasharray="5,2" d="M1782.17,-218.91C1746.88,-203.05 1695.72,-182.72 1648.45,-173.89 1566.63,-158.61 227.73,-186.79 150.45,-155.89 145.1,-153.76 140.07,-150.42 135.56,-146.67"/>
<polygon fill="black" stroke="black" points="1781.13,-222.28 1791.68,-223.25 1784.04,-215.92 1781.13,-222.28"/>
<polygon fill="black" stroke="black" points="137.74,-143.91 128.05,-139.63 132.95,-149.02 137.74,-143.91"/>
</g>
<!-- /var/run/docker.sock&#45;&gt;webrender -->
<g id="edge26" class="edge">
<title>/var/run/docker.sock&#45;&gt;webrender</title>
<path fill="none" stroke="black" stroke-dasharray="5,2" d="M1854.75,-216.5C1879.08,-196.02 1913.98,-166.63 1938.26,-146.18"/>
<polygon fill="black" stroke="black" points="1852.2,-214.08 1846.8,-223.2 1856.71,-219.43 1852.2,-214.08"/>
<polygon fill="black" stroke="black" points="1940.67,-148.73 1946.07,-139.61 1936.16,-143.37 1940.67,-148.73"/>
</g>
<!-- 9092 -->
<g id="node24" class="node">
<title>9092</title>
<ellipse fill="none" stroke="black" cx="114.45" cy="-241.34" rx="34.39" ry="34.39"/>
<text text-anchor="middle" x="114.45" y="-237.64" font-family="Times,serif" font-size="14.00">9092</text>
</g>
<!-- 9092&#45;&gt;kafka -->
<g id="edge22" class="edge">
<title>9092&#45;&gt;kafka</title>
<path fill="none" stroke="black" d="M114.45,-206.87C114.45,-188.89 114.45,-166.99 114.45,-150"/>
<polygon fill="black" stroke="black" points="117.95,-149.64 114.45,-139.64 110.95,-149.64 117.95,-149.64"/>
</g>
<!-- 2181 -->
<g id="node25" class="node">
<title>2181</title>
<ellipse fill="none" stroke="black" cx="34.45" cy="-121.45" rx="34.39" ry="34.39"/>
<text text-anchor="middle" x="34.45" y="-117.75" font-family="Times,serif" font-size="14.00">2181</text>
</g>
<!-- 2181&#45;&gt;zookeeper -->
<g id="edge23" class="edge">
<title>2181&#45;&gt;zookeeper</title>
<path fill="none" stroke="black" d="M40.94,-87.51C43.58,-74.13 46.59,-58.86 49.1,-46.14"/>
<polygon fill="black" stroke="black" points="52.57,-46.64 51.07,-36.15 45.7,-45.28 52.57,-46.64"/>
</g>
<!-- kafka&#45;ui -->
<g id="node26" class="node">
<title>kafka&#45;ui</title>
<polygon fill="none" stroke="black" points="3308.95,-379.23 3235.95,-379.23 3235.95,-375.23 3231.95,-375.23 3231.95,-371.23 3235.95,-371.23 3235.95,-351.23 3231.95,-351.23 3231.95,-347.23 3235.95,-347.23 3235.95,-343.23 3308.95,-343.23 3308.95,-379.23"/>
<polyline fill="none" stroke="black" points="3235.95,-375.23 3239.95,-375.23 3239.95,-371.23 3235.95,-371.23 "/>
<polyline fill="none" stroke="black" points="3235.95,-351.23 3239.95,-351.23 3239.95,-347.23 3235.95,-347.23 "/>
<text text-anchor="middle" x="3272.45" y="-357.53" font-family="Times,serif" font-size="14.00">kafka&#45;ui</text>
</g>
<!-- 9000 -->
<g id="node27" class="node">
<title>9000</title>
<ellipse fill="none" stroke="black" cx="3272.45" cy="-481.13" rx="34.39" ry="34.39"/>
<text text-anchor="middle" x="3272.45" y="-477.43" font-family="Times,serif" font-size="14.00">9000</text>
</g>
<!-- 9000&#45;&gt;kafka&#45;ui -->
<g id="edge24" class="edge">
<title>9000&#45;&gt;kafka&#45;ui</title>
<path fill="none" stroke="black" d="M3272.45,-446.66C3272.45,-428.68 3272.45,-406.78 3272.45,-389.79"/>
<polygon fill="black" stroke="black" points="3275.95,-389.43 3272.45,-379.43 3268.95,-389.43 3275.95,-389.43"/>
</g>
<!-- warcprox&#45;&gt;webrender -->
<g id="edge25" class="edge">
<title>warcprox&#45;&gt;webrender</title>
<path fill="none" stroke="black" d="M1966.45,-223.2C1966.45,-203.9 1966.45,-172.29 1966.45,-149.62"/>
<polygon fill="black" stroke="black" points="1969.95,-149.61 1966.45,-139.61 1962.95,-149.61 1969.95,-149.61"/>
</g>
<!-- /tmp/webrender -->
<g id="node29" class="node">
<title>/tmp/webrender</title>
<polygon fill="none" stroke="black" points="2243.95,-259.34 2240.95,-263.34 2219.95,-263.34 2216.95,-259.34 2112.95,-259.34 2112.95,-223.34 2243.95,-223.34 2243.95,-259.34"/>
<text text-anchor="middle" x="2178.45" y="-237.64" font-family="Times,serif" font-size="14.00">/tmp/webrender</text>
</g>
<!-- /tmp/webrender&#45;&gt;webrender -->
<g id="edge27" class="edge">
<title>/tmp/webrender&#45;&gt;webrender</title>
<path fill="none" stroke="black" stroke-dasharray="5,2" d="M2138.72,-218.25C2100.94,-197.24 2044.41,-165.8 2006.52,-144.73"/>
<polygon fill="black" stroke="black" points="2137.18,-221.4 2147.62,-223.2 2140.58,-215.28 2137.18,-221.4"/>
<polygon fill="black" stroke="black" points="2007.75,-141.41 1997.31,-139.61 2004.35,-147.53 2007.75,-141.41"/>
</g>
<!-- 8010 -->
<g id="node30" class="node">
<title>8010</title>
<ellipse fill="none" stroke="black" cx="2060.45" cy="-241.34" rx="34.39" ry="34.39"/>
<text text-anchor="middle" x="2060.45" y="-237.64" font-family="Times,serif" font-size="14.00">8010</text>
</g>
<!-- 8010&#45;&gt;webrender -->
<g id="edge28" class="edge">
<title>8010&#45;&gt;webrender</title>
<path fill="none" stroke="black" d="M2039.35,-213.88C2023.53,-194.04 2002.02,-167.06 1986.47,-147.55"/>
<polygon fill="black" stroke="black" points="1989.17,-145.33 1980.2,-139.7 1983.7,-149.7 1989.17,-145.33"/>
</g>
<!-- 8000 -->
<g id="node31" class="node">
<title>8000</title>
<ellipse fill="none" stroke="black" cx="1966.45" cy="-361.23" rx="34.39" ry="34.39"/>
<text text-anchor="middle" x="1966.45" y="-357.53" font-family="Times,serif" font-size="14.00">8000</text>
</g>
<!-- 8000&#45;&gt;warcprox -->
<g id="edge32" class="edge">
<title>8000&#45;&gt;warcprox</title>
<path fill="none" stroke="black" d="M1966.45,-326.77C1966.45,-308.78 1966.45,-286.89 1966.45,-269.9"/>
<polygon fill="black" stroke="black" points="1969.95,-269.53 1966.45,-259.53 1962.95,-269.53 1969.95,-269.53"/>
</g>
<!-- 9090 -->
<g id="node32" class="node">
<title>9090</title>
<ellipse fill="none" stroke="black" cx="1607.45" cy="-241.34" rx="34.39" ry="34.39"/>
<text text-anchor="middle" x="1607.45" y="-237.64" font-family="Times,serif" font-size="14.00">9090</text>
</g>
<!-- 9090&#45;&gt;cdxserver -->
<g id="edge33" class="edge">
<title>9090&#45;&gt;cdxserver</title>
<path fill="none" stroke="black" d="M1607.45,-206.87C1607.45,-188.89 1607.45,-166.99 1607.45,-150"/>
<polygon fill="black" stroke="black" points="1610.95,-149.64 1607.45,-139.64 1603.95,-149.64 1610.95,-149.64"/>
<text text-anchor="middle" x="1625.95" y="-177.69" font-family="Times,serif" font-size="14.00">8080</text>
</g>
<!-- warc&#45;server -->
<g id="node33" class="node">
<title>warc&#45;server</title>
<polygon fill="none" stroke="black" points="3475.95,-379.23 3374.95,-379.23 3374.95,-375.23 3370.95,-375.23 3370.95,-371.23 3374.95,-371.23 3374.95,-351.23 3370.95,-351.23 3370.95,-347.23 3374.95,-347.23 3374.95,-343.23 3475.95,-343.23 3475.95,-379.23"/>
<polyline fill="none" stroke="black" points="3374.95,-375.23 3378.95,-375.23 3378.95,-371.23 3374.95,-371.23 "/>
<polyline fill="none" stroke="black" points="3374.95,-351.23 3378.95,-351.23 3378.95,-347.23 3374.95,-347.23 "/>
<text text-anchor="middle" x="3425.45" y="-357.53" font-family="Times,serif" font-size="14.00">warc&#45;server</text>
</g>
<!-- dvc:ro -->
<g id="node34" class="node">
<title>dvc:ro</title>
<polygon fill="none" stroke="black" points="3385.95,-499.13 3324.95,-499.13 3324.95,-495.13 3320.95,-495.13 3320.95,-491.13 3324.95,-491.13 3324.95,-471.13 3320.95,-471.13 3320.95,-467.13 3324.95,-467.13 3324.95,-463.13 3385.95,-463.13 3385.95,-499.13"/>
<polyline fill="none" stroke="black" points="3324.95,-495.13 3328.95,-495.13 3328.95,-491.13 3324.95,-491.13 "/>
<polyline fill="none" stroke="black" points="3324.95,-471.13 3328.95,-471.13 3328.95,-467.13 3324.95,-467.13 "/>
<text text-anchor="middle" x="3355.45" y="-477.43" font-family="Times,serif" font-size="14.00">dvc:ro</text>
</g>
<!-- dvc:ro&#45;&gt;warc&#45;server -->
<g id="edge34" class="edge">
<title>dvc:ro&#45;&gt;warc&#45;server</title>
<path fill="none" stroke="black" stroke-dasharray="5,2" d="M3365.63,-462.99C3377.29,-443.34 3396.53,-410.93 3410.04,-388.19"/>
<polygon fill="black" stroke="black" points="3413.16,-389.78 3415.26,-379.4 3407.14,-386.21 3413.16,-389.78"/>
</g>
<!-- 8001 -->
<g id="node35" class="node">
<title>8001</title>
<ellipse fill="none" stroke="black" cx="3438.45" cy="-481.13" rx="34.39" ry="34.39"/>
<text text-anchor="middle" x="3438.45" y="-477.43" font-family="Times,serif" font-size="14.00">8001</text>
</g>
<!-- 8001&#45;&gt;warc&#45;server -->
<g id="edge35" class="edge">
<title>8001&#45;&gt;warc&#45;server</title>
<path fill="none" stroke="black" d="M3434.76,-446.66C3432.77,-428.68 3430.36,-406.78 3428.49,-389.79"/>
<polygon fill="black" stroke="black" points="3431.92,-388.98 3427.34,-379.43 3424.96,-389.75 3431.92,-388.98"/>
<text text-anchor="middle" x="3451.95" y="-417.48" font-family="Times,serif" font-size="14.00">8000</text>
</g>
<!-- openwayback -->
<g id="node36" class="node">
<title>openwayback</title>
<polygon fill="none" stroke="black" points="3617.95,-379.23 3504.95,-379.23 3504.95,-375.23 3500.95,-375.23 3500.95,-371.23 3504.95,-371.23 3504.95,-351.23 3500.95,-351.23 3500.95,-347.23 3504.95,-347.23 3504.95,-343.23 3617.95,-343.23 3617.95,-379.23"/>
<polyline fill="none" stroke="black" points="3504.95,-375.23 3508.95,-375.23 3508.95,-371.23 3504.95,-371.23 "/>
<polyline fill="none" stroke="black" points="3504.95,-351.23 3508.95,-351.23 3508.95,-347.23 3504.95,-347.23 "/>
<text text-anchor="middle" x="3561.45" y="-357.53" font-family="Times,serif" font-size="14.00">openwayback</text>
</g>
<!-- 8080 -->
<g id="node37" class="node">
<title>8080</title>
<ellipse fill="none" stroke="black" cx="3549.45" cy="-481.13" rx="34.39" ry="34.39"/>
<text text-anchor="middle" x="3549.45" y="-477.43" font-family="Times,serif" font-size="14.00">8080</text>
</g>
<!-- 8080&#45;&gt;openwayback -->
<g id="edge36" class="edge">
<title>8080&#45;&gt;openwayback</title>
<path fill="none" stroke="black" d="M3552.85,-446.66C3554.68,-428.68 3556.91,-406.78 3558.64,-389.79"/>
<polygon fill="black" stroke="black" points="3562.17,-389.73 3559.7,-379.43 3555.2,-389.02 3562.17,-389.73"/>
</g>
<!-- 8090 -->
<g id="node38" class="node">
<title>8090</title>
<ellipse fill="none" stroke="black" cx="3636.45" cy="-481.13" rx="34.39" ry="34.39"/>
<text text-anchor="middle" x="3636.45" y="-477.43" font-family="Times,serif" font-size="14.00">8090</text>
</g>
<!-- 8090&#45;&gt;openwayback -->
<g id="edge37" class="edge">
<title>8090&#45;&gt;openwayback</title>
<path fill="none" stroke="black" d="M3618.29,-451.59C3606,-432.26 3589.88,-406.93 3577.95,-388.18"/>
<polygon fill="black" stroke="black" points="3580.79,-386.11 3572.47,-379.56 3574.88,-389.87 3580.79,-386.11"/>
</g>
<!-- 180 -->
<g id="node39" class="node">
<title>180</title>
<ellipse fill="none" stroke="black" cx="1822.45" cy="-481.13" rx="28.7" ry="28.7"/>
<text text-anchor="middle" x="1822.45" y="-477.43" font-family="Times,serif" font-size="14.00">180</text>
</g>
<!-- 180&#45;&gt;acid.matkelly.com -->
<g id="edge38" class="edge">
<title>180&#45;&gt;acid.matkelly.com</title>
<path fill="none" stroke="black" d="M1822.45,-452.49C1822.45,-433.51 1822.45,-408.44 1822.45,-389.53"/>
<polygon fill="black" stroke="black" points="1825.95,-389.48 1822.45,-379.48 1818.95,-389.48 1825.95,-389.48"/>
<text text-anchor="middle" x="1831.95" y="-417.48" font-family="Times,serif" font-size="14.00">80</text>
</g>
<!-- 280 -->
<g id="node40" class="node">
<title>280</title>
<ellipse fill="none" stroke="black" cx="2196.45" cy="-481.13" rx="28.7" ry="28.7"/>
<text text-anchor="middle" x="2196.45" y="-477.43" font-family="Times,serif" font-size="14.00">280</text>
</g>
<!-- 280&#45;&gt;crawl&#45;test&#45;site.webarchive.org.uk -->
<g id="edge39" class="edge">
<title>280&#45;&gt;crawl&#45;test&#45;site.webarchive.org.uk</title>
<path fill="none" stroke="black" d="M2196.45,-452.49C2196.45,-433.51 2196.45,-408.44 2196.45,-389.53"/>
<polygon fill="black" stroke="black" points="2199.95,-389.48 2196.45,-379.48 2192.95,-389.48 2199.95,-389.48"/>
<text text-anchor="middle" x="2205.95" y="-417.48" font-family="Times,serif" font-size="14.00">80</text>
</g>
<!-- robot -->
<g id="node41" class="node">
<title>robot</title>
<polygon fill="none" stroke="black" points="1444.95,-259.34 1389.95,-259.34 1389.95,-255.34 1385.95,-255.34 1385.95,-251.34 1389.95,-251.34 1389.95,-231.34 1385.95,-231.34 1385.95,-227.34 1389.95,-227.34 1389.95,-223.34 1444.95,-223.34 1444.95,-259.34"/>
<polyline fill="none" stroke="black" points="1389.95,-255.34 1393.95,-255.34 1393.95,-251.34 1389.95,-251.34 "/>
<polyline fill="none" stroke="black" points="1389.95,-231.34 1393.95,-231.34 1393.95,-227.34 1389.95,-227.34 "/>
<text text-anchor="middle" x="1417.45" y="-237.64" font-family="Times,serif" font-size="14.00">robot</text>
</g>
<!-- robot&#45;&gt;kafka -->
<g id="edge40" class="edge">
<title>robot&#45;&gt;kafka</title>
<path fill="none" stroke="black" stroke-dasharray="1,5" d="M1389.79,-239.61C1215.07,-234.81 267.96,-206.63 150.45,-155.89 145.26,-153.65 140.34,-150.33 135.91,-146.64"/>
<polygon fill="black" stroke="black" points="138.2,-143.99 128.49,-139.75 133.43,-149.12 138.2,-143.99"/>
</g>
<!-- robot&#45;&gt;cdxserver -->
<g id="edge41" class="edge">
<title>robot&#45;&gt;cdxserver</title>
<path fill="none" stroke="black" stroke-dasharray="1,5" d="M1445.05,-223.44C1472.76,-206.46 1516.63,-179.48 1554.45,-155.89 1560.02,-152.42 1565.91,-148.72 1571.66,-145.1"/>
<polygon fill="black" stroke="black" points="1573.93,-147.81 1580.52,-139.52 1570.19,-141.89 1573.93,-147.81"/>
</g>
<!-- ./integration&#45;test/robot/tests -->
<g id="node42" class="node">
<title>./integration&#45;test/robot/tests</title>
<polygon fill="none" stroke="black" points="1426.45,-379.23 1423.45,-383.23 1402.45,-383.23 1399.45,-379.23 1206.45,-379.23 1206.45,-343.23 1426.45,-343.23 1426.45,-379.23"/>
<text text-anchor="middle" x="1316.45" y="-357.53" font-family="Times,serif" font-size="14.00">./integration&#45;test/robot/tests</text>
</g>
<!-- ./integration&#45;test/robot/tests&#45;&gt;robot -->
<g id="edge42" class="edge">
<title>./integration&#45;test/robot/tests&#45;&gt;robot</title>
<path fill="none" stroke="black" stroke-dasharray="5,2" d="M1331.13,-343.09C1348.19,-323.18 1376.47,-290.17 1395.99,-267.39"/>
<polygon fill="black" stroke="black" points="1398.89,-269.38 1402.74,-259.5 1393.58,-264.82 1398.89,-269.38"/>
<text text-anchor="middle" x="1393.45" y="-297.59" font-family="Times,serif" font-size="14.00">/tests</text>
</g>
<!-- ./integration&#45;test/results -->
<g id="node43" class="node">
<title>./integration&#45;test/results</title>
<polygon fill="none" stroke="black" points="1635.95,-379.23 1632.95,-383.23 1611.95,-383.23 1608.95,-379.23 1444.95,-379.23 1444.95,-343.23 1635.95,-343.23 1635.95,-379.23"/>
<text text-anchor="middle" x="1540.45" y="-357.53" font-family="Times,serif" font-size="14.00">./integration&#45;test/results</text>
</g>
<!-- ./integration&#45;test/results&#45;&gt;robot -->
<g id="edge43" class="edge">
<title>./integration&#45;test/results&#45;&gt;robot</title>
<path fill="none" stroke="black" stroke-dasharray="5,2" d="M1515.27,-336.1C1494.09,-315.8 1463.94,-286.91 1442.73,-266.58"/>
<polygon fill="black" stroke="black" points="1512.92,-338.7 1522.56,-343.09 1517.76,-333.65 1512.92,-338.7"/>
<polygon fill="black" stroke="black" points="1445,-263.9 1435.35,-259.5 1440.15,-268.95 1445,-263.9"/>
<text text-anchor="middle" x="1500.45" y="-297.59" font-family="Times,serif" font-size="14.00">/out</text>
</g>
</g>
</svg>
